<svg width="960" height="640" viewBox="0 0 960 640" fill="none" xmlns="http://www.w3.org/2000/svg">
  <defs>
    <linearGradient id="sky" x1="0" y1="0" x2="0" y2="1">
      <stop offset="0" stop-color="#F9EFE0" />
      <stop offset="1" stop-color="#E6F2EE" />
    </linearGradient>
    <linearGradient id="tower" x1="0" y1="0" x2="1" y2="1">
      <stop offset="0" stop-color="#FFFFFF" />
      <stop offset="1" stop-color="#E9E1D7" />
    </linearGradient>
  </defs>
  <rect width="960" height="640" rx="36" fill="url(#sky)" />
  <circle cx="140" cy="120" r="64" fill="#FFE3BF" />
  <path d="M0 470C140 430 320 430 480 480C640 530 820 540 960 520V640H0V470Z" fill="#D9F2EC" />
  <rect x="160" y="160" width="220" height="360" rx="26" fill="url(#tower)" />
  <rect x="400" y="210" width="260" height="350" rx="26" fill="#F4E9DD" />
  <rect x="680" y="260" width="140" height="300" rx="24" fill="#F8F3EC" />
  <rect x="200" y="210" width="60" height="40" rx="12" fill="#0F766E" opacity="0.25" />
  <rect x="280" y="210" width="60" height="40" rx="12" fill="#0F766E" opacity="0.25" />
  <rect x="200" y="270" width="60" height="40" rx="12" fill="#0F766E" opacity="0.25" />
  <rect x="280" y="270" width="60" height="40" rx="12" fill="#0F766E" opacity="0.25" />
  <rect x="200" y="330" width="60" height="40" rx="12" fill="#0F766E" opacity="0.25" />
  <rect x="280" y="330" width="60" height="40" rx="12" fill="#0F766E" opacity="0.25" />
  <rect x="440" y="260" width="70" height="50" rx="14" fill="#1C5A84" opacity="0.22" />
  <rect x="530" y="260" width="70" height="50" rx="14" fill="#1C5A84" opacity="0.22" />
  <rect x="440" y="330" width="70" height="50" rx="14" fill="#1C5A84" opacity="0.22" />
  <rect x="530" y="330" width="70" height="50" rx="14" fill="#1C5A84" opacity="0.22" />
  <rect x="440" y="400" width="70" height="50" rx="14" fill="#1C5A84" opacity="0.22" />
  <rect x="530" y="400" width="70" height="50" rx="14" fill="#1C5A84" opacity="0.22" />
  <rect x="712" y="310" width="50" height="40" rx="12" fill="#C46822" opacity="0.28" />
  <rect x="712" y="370" width="50" height="40" rx="12" fill="#C46822" opacity="0.28" />
  <rect x="712" y="430" width="50" height="40" rx="12" fill="#C46822" opacity="0.28" />
</svg>
